<svg xmlns="http://www.w3.org/2000/svg" xmlns:xlink="http://www.w3.org/1999/xlink" xml:space="preserve" version="1.1" style="shape-rendering:geometricPrecision;text-rendering:geometricPrecision;image-rendering:optimizeQuality;" viewBox="0 0 243 300" x="0px" y="0px" fill-rule="evenodd" clip-rule="evenodd"><defs><style type="text/css">
   
    .fil0 {fill:white}
   
  </style></defs><g><path class="fil0" d="M97 231c0,0 15,-9 12,-39 -3,-31 -17,-36 -27,-40 -11,-3 -17,-4 -25,-4 -8,1 -21,6 -21,6l14 -8c0,0 -6,-2 -9,-7 -3,-4 -5,-7 -5,-7 0,0 10,11 18,12 8,1 24,-1 34,4 11,5 24,17 24,17 0,0 -1,-25 -8,-36 -7,-11 -9,-17 -16,-22 -8,-4 -15,-5 -15,-5l16 3c0,0 -1,-9 0,-13 2,-5 5,-8 5,-8 0,0 -3,7 -3,11 1,3 -1,7 4,12 5,6 18,24 20,31 2,7 5,25 5,25 0,0 -1,-20 10,-34 11,-14 19,-24 20,-28 0,-5 1,-8 0,-10 -1,-2 -2,-7 -2,-7 0,0 6,6 5,13 0,6 -1,7 -1,7 0,0 2,-3 7,-4 6,0 10,1 10,1 0,0 -15,3 -18,7 -2,5 -14,18 -17,33 -3,14 -3,22 -3,22 0,0 15,-16 28,-17 13,-1 17,1 28,-3 12,-4 17,-14 17,-14 0,0 -1,8 -6,12 -5,3 -8,4 -8,4 0,0 10,1 14,5 4,4 4,7 4,7 0,0 -1,-5 -18,-8 -17,-3 -34,2 -37,7 -4,4 -22,12 -21,38 1,26 10,38 21,39 10,1 -10,1 -10,1l-12 5c0,0 4,-7 -1,-7 -6,0 -25,8 -25,8 0,0 8,-4 3,-6 -5,-1 -21,0 -21,0l10 -3z"/><path class="fil0" d="M121 135c-3,0 -5,-7 -4,-12 0,3 0,2 1,4 0,-2 0,-4 0,-6 1,1 1,2 2,3 0,-3 1,-3 1,-6 2,2 1,3 1,6 1,0 1,-1 2,-2 0,2 0,4 0,5 0,0 1,-2 1,-2 1,4 -2,10 -4,10z"/><path class="fil0" d="M131 120c-2,1 -6,-5 -7,-10 1,3 1,2 2,3 0,-2 0,-3 -2,-5 2,0 2,1 3,2 0,-3 1,-3 -1,-6 3,2 2,2 4,5 0,0 0,-1 1,-2 0,2 1,3 1,4 1,0 1,-2 1,-2 2,4 1,11 -2,11z"/><path class="fil0" d="M123 86c-2,1 -7,-4 -7,-9 1,2 1,1 2,2 0,-2 -1,-3 -2,-5 1,0 2,2 3,2 0,-2 0,-3 -1,-6 2,2 2,2 3,6 1,-1 1,-2 1,-3 1,2 1,3 1,5 1,-1 1,-3 1,-3 2,4 2,11 -1,11z"/><path class="fil0" d="M123 41c-2,1 -7,-4 -8,-9 2,2 2,1 3,2 -1,-2 -1,-3 -2,-5 1,0 2,2 3,2 -1,-2 0,-3 -1,-6 2,2 2,2 3,6 1,-1 1,-2 1,-3 1,2 1,3 1,5 1,-1 1,-3 1,-3 2,4 2,11 -1,11z"/><path class="fil0" d="M83 32c-2,1 -7,-5 -8,-10 2,3 2,2 3,3 -1,-2 -1,-3 -2,-5 1,0 2,1 3,2 -1,-3 0,-3 -1,-6 2,2 2,2 3,5 1,0 1,-1 1,-2 1,2 1,3 1,4 1,0 1,-2 1,-2 2,3 2,11 -1,11z"/><path class="fil0" d="M48 60c-2,1 -6,-4 -7,-9 1,2 1,1 2,3 0,-2 -1,-4 -2,-6 2,1 2,2 3,3 0,-3 1,-3 -1,-7 3,2 2,3 3,6 1,-1 1,-2 2,-3 0,2 1,4 1,5 0,0 1,-2 1,-2 2,3 1,10 -2,10z"/><path class="fil0" d="M37 81c-3,1 -7,-4 -8,-9 2,2 2,1 3,3 -1,-2 -1,-3 -3,-6 2,1 3,2 4,3 -1,-3 0,-3 -1,-6 2,1 2,2 3,5 1,0 1,-2 1,-3 1,2 1,4 1,5 1,0 1,-2 1,-2 2,3 1,10 -1,10z"/><path class="fil0" d="M72 78c-2,1 -6,-5 -7,-10 1,3 1,2 2,3 0,-2 0,-3 -2,-5 2,0 2,1 3,2 0,-3 1,-3 -1,-6 3,2 2,2 4,5 0,0 0,-1 1,-2 0,2 1,3 1,4 0,0 1,-2 1,-2 2,4 1,11 -2,11z"/><path class="fil0" d="M146 59c-2,1 -6,-4 -7,-9 1,2 1,1 2,3 0,-2 0,-3 -2,-6 2,1 2,2 3,3 0,-3 1,-3 -1,-6 3,1 2,2 4,5 1,0 0,-2 1,-3 0,2 1,4 1,5 1,0 1,-2 1,-2 2,3 1,10 -2,10z"/><path class="fil0" d="M49 102c-2,1 -6,-5 -7,-10 1,3 1,1 2,3 0,-2 -1,-3 -2,-5 2,0 2,1 3,2 0,-3 1,-3 -1,-6 3,2 2,2 4,5 0,0 0,-1 1,-3 0,3 1,4 1,5 0,0 1,-2 1,-2 2,3 1,10 -2,11z"/><path class="fil0" d="M82 50c-3,1 -7,-5 -8,-10 1,3 1,1 2,3 0,-2 0,-3 -2,-5 2,0 2,1 3,2 0,-3 1,-3 -1,-6 3,2 2,2 4,5 1,0 0,-1 1,-3 0,3 1,4 1,5 1,0 1,-2 1,-2 2,3 1,10 -1,11z"/><path class="fil0" d="M30 110c-3,1 -7,-5 -8,-10 2,3 2,2 3,3 -1,-2 -1,-3 -3,-5 2,0 3,1 4,2 -1,-2 0,-3 -1,-6 2,2 2,2 3,5 1,0 1,-1 1,-2 1,2 1,3 1,4 1,0 1,-2 1,-2 2,4 1,11 -1,11z"/><path class="fil0" d="M61 130c-2,1 -7,-5 -7,-10 1,3 1,2 2,3 0,-2 -1,-3 -2,-5 1,0 2,1 3,2 0,-3 0,-3 -1,-6 2,2 2,2 3,5 1,0 1,-1 1,-2 1,2 1,3 1,4 1,0 1,-2 1,-2 2,4 2,11 -1,11z"/><path class="fil0" d="M82 98c-3,0 -7,-5 -8,-10 2,2 2,1 3,3 -1,-2 -1,-3 -3,-6 2,1 3,2 4,3 -1,-3 0,-3 -1,-6 2,1 2,2 3,5 1,0 1,-1 1,-3 1,2 1,4 1,5 1,0 1,-2 1,-2 2,3 2,10 -1,11z"/><path class="fil0" d="M58 33c-3,1 -7,-5 -8,-10 2,3 2,2 3,3 -1,-2 -1,-3 -3,-5 2,0 3,1 4,2 -1,-3 0,-3 -1,-6 2,2 1,2 3,5 1,0 1,-1 1,-2 1,2 1,3 1,4 1,0 1,-2 1,-2 2,4 1,11 -1,11z"/><path class="fil0" d="M35 130c-3,0 -7,-5 -8,-10 1,3 2,1 3,3 -1,-2 -1,-3 -3,-5 2,0 3,1 3,2 0,-3 1,-3 0,-6 2,2 1,2 3,5 1,0 0,-1 1,-3 1,3 1,4 1,5 1,0 1,-2 1,-2 2,3 1,10 -1,11z"/><path class="fil0" d="M110 118c-2,-1 -1,-8 2,-12 -1,3 0,2 0,4 1,-2 2,-3 2,-5 1,1 1,2 1,4 1,-2 2,-2 4,-5 0,3 -1,3 -2,6 1,0 1,0 3,-1 -2,2 -3,3 -4,4 1,0 3,-1 3,-1 -1,4 -7,8 -9,6z"/><path class="fil0" d="M94 79c-2,-1 -1,-8 3,-12 -1,3 0,2 -1,4 2,-2 2,-3 3,-5 1,1 0,2 0,4 2,-2 3,-2 4,-5 0,3 0,3 -2,6 1,0 2,-1 3,-1 -1,2 -2,3 -3,4 1,0 2,-1 2,-1 -1,4 -7,8 -9,6z"/><path class="fil0" d="M157 97c-2,-2 0,-8 3,-12 -1,2 0,2 -1,3 2,-1 2,-2 3,-5 1,2 0,3 0,4 2,-2 3,-1 4,-4 1,3 0,2 -2,5 1,1 2,0 3,0 -1,2 -2,3 -3,3 1,1 2,0 2,0 -1,4 -7,8 -9,6z"/><path class="fil0" d="M205 127c-2,-1 -1,-8 3,-12 -1,3 0,2 -1,4 2,-2 2,-3 3,-5 1,1 0,2 0,4 2,-2 3,-2 4,-5 0,3 0,3 -2,6 1,0 2,-1 3,-1 -1,2 -2,3 -3,4 1,0 2,-1 2,-1 -1,4 -7,8 -9,6z"/><path class="fil0" d="M189 102c-2,-2 -1,-9 3,-12 -1,2 0,2 -1,3 2,-1 2,-2 3,-5 1,2 0,3 0,4 2,-2 3,-2 4,-5 1,3 0,3 -2,6 1,1 2,0 3,0 -1,1 -2,3 -3,3 1,1 2,0 2,0 -1,3 -7,8 -9,6z"/><path class="fil0" d="M138 148c-2,-1 -1,-8 3,-11 -2,2 -1,1 -1,3 1,-1 2,-2 3,-5 0,2 0,3 0,4 2,-2 2,-2 4,-5 0,3 -1,3 -2,6 1,1 1,0 3,-1 -2,2 -2,3 -3,4 0,1 2,0 2,0 -1,3 -7,7 -9,5z"/><path class="fil0" d="M202 82c-2,-1 0,-8 3,-12 -1,3 0,2 -1,4 2,-2 2,-3 3,-5 1,1 0,2 0,3 2,-2 3,-1 4,-4 1,3 0,3 -2,6 1,0 2,-1 3,-1 -1,2 -2,3 -3,4 1,0 2,-1 2,-1 -1,4 -7,8 -9,6z"/><path class="fil0" d="M162 64c-2,-1 -1,-8 2,-12 -1,3 0,2 0,4 1,-2 2,-3 2,-6 1,2 1,3 1,4 1,-2 2,-1 4,-4 0,3 -1,3 -2,6 1,0 1,-1 3,-1 -2,2 -3,3 -4,3 1,1 3,0 3,0 -1,4 -7,8 -9,6z"/><path class="fil0" d="M183 32c-3,-1 -1,-8 2,-12 -1,3 0,2 -1,4 2,-2 2,-3 3,-5 1,1 0,2 0,3 2,-2 3,-1 4,-4 1,3 0,3 -2,6 1,0 2,-1 3,-1 -1,2 -2,3 -3,4 1,0 3,-1 3,-1 -2,4 -7,8 -9,6z"/><path class="fil0" d="M187 46c-3,-2 -1,-9 2,-12 -1,2 0,2 0,3 1,-1 1,-2 2,-5 1,2 0,3 0,4 2,-2 3,-1 4,-4 1,3 0,2 -2,5 1,1 2,0 3,0 -1,2 -2,3 -3,3 1,1 3,0 3,0 -2,3 -7,8 -9,6z"/><path class="fil0" d="M103 150c-2,1 -8,-3 -10,-7 2,2 1,1 3,2 -1,-2 -2,-3 -4,-5 2,0 3,1 4,2 -1,-3 -1,-3 -3,-6 3,1 2,2 5,4 0,-1 0,-1 0,-3 1,2 2,3 2,4 1,0 1,-2 1,-2 3,3 4,9 2,11z"/><path class="fil0" d="M134 71c-2,2 -8,-2 -10,-7 2,2 1,1 3,2 -1,-2 -2,-3 -4,-4 2,0 3,1 4,1 -1,-2 -1,-3 -3,-5 3,0 2,1 5,4 0,-1 0,-2 0,-3 1,2 2,3 2,4 1,-1 1,-2 1,-2 3,2 4,9 2,10z"/><path class="fil0" d="M116 25c-2,1 -8,-3 -10,-7 2,2 2,1 3,2 -1,-2 -1,-3 -3,-5 1,0 2,1 3,2 -1,-3 0,-3 -2,-6 2,1 2,2 4,4 1,0 0,-1 1,-3 1,2 2,3 2,4 1,0 0,-2 0,-2 3,3 5,9 2,11z"/><path class="fil0" d="M67 87c-2,2 -8,-2 -10,-7 2,2 1,1 3,2 -1,-1 -2,-2 -4,-4 2,0 2,1 4,1 -2,-2 -1,-3 -3,-5 3,1 2,1 5,4 0,-1 0,-2 0,-3 1,2 2,3 2,4 1,0 0,-2 0,-2 4,2 5,9 3,10z"/><path class="fil0" d="M53 45c-2,1 -8,-3 -10,-7 2,2 2,1 3,2 -1,-2 -1,-3 -3,-5 1,0 2,1 3,2 -1,-3 0,-3 -2,-6 2,1 2,2 4,4 1,0 1,-1 1,-3 1,2 2,3 2,4 1,0 0,-2 0,-2 3,3 5,10 2,11z"/><path class="fil0" d="M135 103c-2,1 -8,-3 -10,-7 2,2 2,1 3,2 -1,-2 -2,-3 -4,-5 2,0 3,1 4,2 -1,-3 0,-3 -2,-6 2,1 2,1 4,4 1,0 0,-1 1,-3 1,2 1,4 2,5 0,-1 0,-3 0,-3 3,3 4,10 2,11z"/><path class="fil0" d="M142 35c-3,0 -6,-6 -5,-11 0,3 0,1 1,3 0,-2 0,-3 -1,-6 2,1 2,2 3,3 0,-2 1,-2 0,-6 2,2 1,3 2,6 1,0 1,-1 2,-2 0,2 0,3 0,4 1,0 1,-2 1,-2 2,4 0,11 -3,11z"/><path class="fil0" d="M64 52c-3,1 -6,-5 -6,-11 1,3 1,2 2,4 0,-2 0,-4 -1,-6 2,1 2,2 3,3 0,-3 0,-3 0,-6 2,2 1,2 2,6 1,-1 1,-2 2,-3 0,2 0,4 0,5 0,0 1,-2 1,-2 1,4 -1,11 -3,10z"/><path class="fil0" d="M172 141c-2,1 -6,-5 -5,-10 0,2 0,1 1,3 0,-2 0,-4 -1,-6 2,1 2,2 3,3 0,-3 1,-3 0,-6 2,2 1,2 2,6 1,-1 1,-2 2,-3 0,3 0,4 0,5 1,0 1,-2 1,-2 2,4 0,11 -3,10z"/><path class="fil0" d="M203 157c2,0 5,7 3,12 0,-3 0,-2 -1,-3 0,2 0,3 1,5 -2,-1 -2,-2 -3,-3 0,3 -1,3 -1,6 -2,-2 -1,-3 -1,-6 -1,0 -1,1 -2,2 0,-2 0,-4 1,-5 -1,0 -2,2 -2,2 -1,-4 2,-10 5,-10z"/><path class="fil0" d="M41 179c2,0 5,7 3,12 0,-3 0,-2 -1,-4 0,2 0,4 0,6 -1,-1 -1,-2 -2,-3 0,2 -1,2 -1,6 -2,-3 -1,-3 -1,-6 -1,0 -1,1 -2,2 0,-2 0,-4 1,-5 -1,0 -2,2 -2,2 -1,-4 2,-11 5,-10z"/><path class="fil0" d="M203 179c2,0 5,7 3,12 0,-3 0,-2 -1,-4 0,2 0,4 1,6 -2,-1 -2,-2 -3,-3 0,2 -1,2 -1,6 -2,-3 -1,-3 -1,-6 -1,0 -1,1 -2,2 0,-2 0,-4 1,-5 -1,0 -2,2 -2,2 -1,-4 2,-11 5,-10z"/><path class="fil0" d="M20 173c2,1 0,8 -3,12 1,-3 0,-2 1,-4 -2,2 -2,3 -3,5 -1,-1 0,-3 0,-4 -2,2 -3,2 -5,5 0,-3 1,-3 3,-6 -1,-1 -2,0 -3,1 1,-2 2,-3 3,-4 -1,-1 -2,1 -2,1 1,-4 7,-8 9,-6z"/><path class="fil0" d="M183 172c2,2 0,8 -3,12 1,-3 0,-2 1,-4 -2,2 -3,3 -3,5 -1,-1 0,-2 0,-4 -2,2 -3,2 -5,5 0,-3 1,-3 3,-6 -1,0 -2,0 -3,1 1,-2 2,-3 3,-4 -1,0 -2,1 -2,1 1,-4 7,-8 9,-6z"/><path class="fil0" d="M212 156c1,-1 8,2 10,6 -2,-1 -2,0 -3,-1 1,1 2,2 4,4 -2,0 -3,-1 -4,-1 2,2 1,3 3,5 -3,-1 -2,-1 -5,-4 0,1 0,2 0,3 -1,-1 -2,-3 -2,-4 -1,1 0,3 0,3 -4,-3 -6,-9 -3,-11z"/><path class="fil0" d="M103 109c-3,1 -6,-5 -6,-10 1,2 1,1 2,3 -1,-2 -1,-3 -2,-6 2,1 2,2 3,3 0,-3 1,-3 0,-6 2,2 1,2 2,5 1,0 1,-1 2,-2 0,2 0,4 0,5 1,0 1,-2 1,-2 2,3 1,10 -2,10z"/><path class="fil0" d="M89 69c-2,1 -6,-5 -6,-10 1,2 1,1 2,3 0,-2 0,-3 -2,-6 2,1 2,2 3,3 0,-3 1,-3 0,-6 2,2 2,2 3,6 1,-1 1,-2 1,-3 1,2 1,4 0,5 1,0 2,-2 2,-2 1,3 0,10 -3,10z"/><path class="fil0" d="M59 70c-3,0 -6,-6 -6,-11 1,3 1,2 2,3 0,-2 -1,-3 -2,-5 2,0 2,1 3,2 0,-2 1,-3 0,-6 2,2 1,2 2,6 1,0 1,-2 2,-3 0,3 0,4 0,5 1,0 1,-2 1,-2 2,4 1,11 -2,11z"/><path class="fil0" d="M52 72c-1,2 -8,1 -11,-3 2,1 1,0 3,1 -1,-2 -3,-2 -5,-3 2,-1 3,0 4,0 -2,-2 -1,-3 -4,-4 3,0 2,0 5,2 1,-1 0,-2 0,-3 2,1 3,2 3,3 1,0 0,-2 0,-2 3,1 7,7 5,9z"/><path class="fil0" d="M26 78c-2,2 -9,1 -12,-3 2,1 2,1 3,1 -1,-1 -2,-2 -5,-3 2,-1 3,0 4,0 -2,-2 -1,-2 -4,-4 3,0 3,0 6,2 0,-1 -1,-1 -1,-3 2,2 3,3 4,3 0,0 -1,-2 -1,-2 4,2 8,8 6,9z"/><path class="fil0" d="M37 94c-1,2 -8,1 -12,-3 3,1 2,0 4,1 -1,-2 -3,-2 -5,-3 2,-1 3,0 4,0 -2,-2 -2,-3 -5,-5 4,0 3,1 6,3 1,-1 0,-2 0,-3 1,1 2,2 3,3 1,-1 0,-2 0,-2 3,1 7,7 5,9z"/><path class="fil0" d="M37 58c-1,2 -8,1 -12,-3 3,1 2,0 4,1 -1,-1 -3,-2 -5,-3 2,-1 3,0 4,0 -2,-2 -2,-3 -5,-4 4,0 3,0 6,2 1,-1 0,-2 0,-3 1,1 2,2 3,3 1,0 0,-2 0,-2 3,1 7,7 5,9z"/><path class="fil0" d="M204 57c-1,-2 4,-7 9,-8 -2,2 -1,2 -3,3 2,-1 4,-1 6,-3 -1,2 -2,3 -3,4 3,-1 3,0 6,-2 -1,3 -2,2 -5,4 1,1 2,0 3,1 -2,1 -4,1 -5,1 0,1 2,1 2,1 -3,2 -10,2 -10,-1z"/><path class="fil0" d="M219 110c-1,-2 5,-7 10,-8 -3,2 -2,2 -3,3 2,-1 3,-1 5,-3 0,2 -1,3 -2,3 3,0 3,1 6,-1 -2,3 -2,2 -5,4 0,1 1,0 2,1 -2,1 -3,1 -4,1 0,1 2,1 2,1 -4,2 -11,2 -11,-1z"/><path class="fil0" d="M223 140c-1,-2 4,-6 9,-7 -2,1 -1,1 -3,2 2,0 3,-1 6,-2 -1,2 -2,2 -3,3 3,0 3,0 6,-1 -1,3 -2,2 -5,3 0,1 2,1 3,1 -2,1 -4,1 -5,1 0,1 2,1 2,1 -3,3 -10,2 -10,-1z"/><path class="fil0" d="M227 164c1,-2 8,-1 11,3 -2,-1 -2,0 -3,-1 1,1 2,2 5,3 -2,1 -3,0 -4,0 2,2 1,2 4,4 -3,0 -3,0 -6,-2 0,1 1,2 1,3 -2,-1 -3,-2 -3,-3 -1,0 0,2 0,2 -4,-1 -7,-7 -5,-9z"/><path class="fil0" d="M223 173c2,-1 7,3 8,8 -1,-2 -1,-1 -2,-2 0,2 1,3 3,5 -2,-1 -3,-2 -4,-2 1,2 1,3 2,6 -2,-2 -2,-2 -4,-5 -1,0 0,2 0,3 -1,-2 -2,-4 -2,-5 -1,1 -1,3 -1,3 -2,-3 -3,-10 0,-11z"/><path class="fil0" d="M210 169c2,-1 7,5 7,10 -1,-2 -1,-1 -2,-3 0,2 0,3 2,6 -2,-1 -2,-2 -3,-3 0,3 -1,3 0,6 -2,-2 -1,-2 -3,-5 0,0 0,1 -1,2 0,-2 -1,-3 0,-4 -1,0 -2,2 -2,2 -2,-4 -1,-11 2,-11z"/><path class="fil0" d="M192 170c2,-1 5,6 5,11 -1,-3 -1,-2 -2,-4 0,2 0,4 1,6 -2,-1 -2,-2 -3,-3 0,3 -1,3 0,6 -2,-2 -1,-2 -2,-6 -1,1 -1,2 -2,3 0,-3 0,-4 0,-5 0,0 -1,2 -1,2 -1,-4 1,-11 4,-10z"/><path class="fil0" d="M181 154c1,2 -5,7 -10,7 3,-1 1,-1 3,-2 -2,0 -3,0 -6,2 1,-2 2,-2 3,-3 -3,0 -3,-1 -6,0 2,-2 2,-2 5,-3 0,-1 -1,-1 -2,-1 2,-1 3,-1 5,-1 -1,0 -3,-1 -3,-1 4,-2 11,-1 11,2z"/><path class="fil0" d="M177 168c1,2 -5,6 -10,7 2,-1 1,-1 3,-2 -2,0 -3,0 -6,1 1,-1 2,-2 3,-3 -3,1 -3,0 -6,1 2,-2 2,-2 5,-3 0,-1 -1,-1 -2,-1 2,-1 3,-1 4,-1 0,-1 -2,-1 -2,-1 4,-2 11,-1 11,2z"/><path class="fil0" d="M191 155c2,1 2,8 -1,12 1,-3 0,-2 0,-4 -1,2 -1,3 -1,6 -1,-2 -1,-3 -1,-4 -2,2 -2,2 -3,5 -1,-3 -1,-3 1,-6 -1,0 -2,0 -3,1 1,-2 2,-3 2,-4 0,0 -2,1 -2,1 1,-4 6,-9 8,-7z"/><path class="fil0" d="M203 144c0,-2 6,-6 11,-6 -3,1 -2,1 -4,2 3,0 4,0 6,-1 -1,1 -2,2 -3,3 3,0 3,0 6,0 -2,2 -2,1 -5,2 0,1 1,1 2,1 -2,1 -3,1 -5,1 0,0 2,1 2,1 -3,1 -10,0 -10,-3z"/><path class="fil0" d="M221 153c-1,-2 5,-6 10,-6 -2,1 -1,1 -3,2 2,0 3,0 6,-1 -1,1 -2,2 -3,2 3,1 3,1 6,1 -2,2 -2,1 -6,2 1,1 2,1 3,1 -2,1 -4,1 -5,1 0,0 2,1 2,1 -4,1 -11,0 -10,-3z"/><path class="fil0" d="M155 143c-2,-1 -2,-8 0,-12 0,2 0,2 0,3 1,-1 2,-3 2,-5 1,1 1,2 1,4 1,-3 2,-3 3,-6 1,3 0,3 -1,6 1,1 2,0 3,-1 -1,2 -2,3 -2,4 0,1 2,-1 2,-1 -1,4 -5,9 -8,8z"/><path class="fil0" d="M85 144c-3,1 -7,-5 -7,-10 1,3 1,2 2,3 0,-2 -1,-3 -2,-5 2,0 2,1 3,2 0,-3 0,-3 -1,-6 3,2 2,2 3,5 1,0 1,-1 1,-2 1,2 1,3 1,5 1,-1 1,-3 1,-3 2,4 1,11 -1,11z"/><path class="fil0" d="M69 143c-2,0 -4,-7 -3,-12 0,3 1,2 1,4 0,-2 0,-4 0,-6 1,1 1,2 2,3 1,-2 1,-2 1,-6 2,3 1,3 1,7 1,0 2,-2 3,-3 -1,3 -1,4 -1,5 0,0 1,-1 1,-1 1,3 -2,10 -5,9z"/><path class="fil0" d="M56 141c-2,2 -7,-3 -8,-8 1,2 1,1 2,2 0,-2 -1,-3 -3,-5 2,1 3,2 4,2 -1,-2 0,-3 -2,-6 3,2 2,2 4,5 1,0 1,-1 1,-3 1,2 1,4 1,5 1,0 1,-2 1,-2 3,3 3,10 0,10z"/><path class="fil0" d="M42 130c-3,0 -4,-7 -2,-12 0,3 0,2 0,4 1,-2 1,-4 1,-6 1,1 1,2 2,3 1,-2 1,-2 2,-5 1,2 0,2 0,6 1,0 1,-1 2,-2 0,2 0,4 -1,5 1,0 2,-2 2,-2 0,4 -4,10 -6,9z"/><path class="fil0" d="M39 114c-3,0 -6,-7 -5,-12 1,3 1,2 2,4 0,-2 0,-4 -1,-6 1,1 2,2 2,3 1,-3 1,-3 1,-6 2,2 1,2 2,6 1,0 1,-1 2,-2 0,2 0,3 -1,4 1,0 2,-1 2,-1 1,3 -2,10 -4,10z"/><path class="fil0" d="M98 130c-1,2 -8,2 -12,-1 3,1 2,0 4,0 -2,-1 -3,-1 -6,-2 2,-1 3,0 4,0 -2,-2 -2,-3 -5,-4 3,0 3,0 6,1 0,0 -1,-1 -1,-2 2,1 3,1 4,2 0,-1 -1,-2 -1,-2 4,1 9,6 7,8z"/><path class="fil0" d="M90 116c1,2 -5,6 -10,6 2,-1 1,-1 3,-2 -2,0 -3,0 -6,1 1,-1 2,-2 3,-3 -3,0 -3,0 -6,0 2,-2 2,-1 6,-2 -1,-1 -2,-1 -3,-2 2,0 4,0 5,0 0,0 -2,-1 -2,-1 4,-1 11,0 10,3z"/><path class="fil0" d="M76 105c2,2 0,8 -4,12 2,-3 1,-2 1,-4 -1,2 -2,3 -3,5 -1,-2 0,-3 0,-4 -2,2 -2,1 -4,4 0,-3 0,-3 2,-5 0,-1 -1,0 -3,0 2,-2 3,-3 4,-3 -1,-1 -2,0 -2,0 1,-4 7,-7 9,-5z"/><path class="fil0" d="M68 103c1,3 -5,7 -10,7 2,-1 1,-1 3,-2 -2,0 -4,0 -6,1 1,-1 2,-2 3,-3 -3,0 -3,0 -6,1 2,-3 2,-2 5,-3 0,-1 -1,-1 -2,-1 2,-1 3,-1 4,-1 0,-1 -2,-1 -2,-1 4,-2 11,0 11,2z"/><path class="fil0" d="M74 99c-2,2 -8,0 -12,-3 3,1 2,0 4,1 -2,-2 -3,-2 -5,-3 1,-1 2,0 4,0 -2,-2 -2,-3 -5,-5 3,0 3,1 6,3 0,-1 0,-2 -1,-3 2,1 3,2 4,3 0,-1 -1,-2 -1,-2 4,1 8,7 6,9z"/><path class="fil0" d="M91 24c-3,0 -6,-6 -5,-11 1,2 1,1 2,3 0,-2 0,-3 -1,-6 2,1 2,3 2,4 1,-3 2,-3 1,-7 2,3 2,3 2,6 1,0 1,-1 2,-2 0,3 0,4 -1,5 1,0 2,-2 2,-2 1,4 -2,11 -4,10z"/><path class="fil0" d="M68 36c-2,0 -5,-6 -4,-11 0,2 1,1 1,3 1,-2 1,-3 0,-6 1,1 1,2 2,3 1,-2 1,-2 1,-6 2,3 1,3 2,6 1,0 1,-1 1,-2 1,2 0,4 0,5 1,0 2,-2 2,-2 1,4 -2,11 -5,10z"/><path class="fil0" d="M174 35c-2,0 -5,-7 -4,-12 0,3 1,2 1,4 1,-2 0,-4 0,-6 1,1 1,2 2,3 1,-3 1,-3 1,-6 2,2 1,3 1,6 1,0 2,-1 2,-2 0,2 0,4 0,5 1,0 1,-2 1,-2 1,4 -1,10 -4,10z"/><path class="fil0" d="M154 70c-2,1 -5,-6 -4,-11 0,3 1,2 1,3 0,-2 0,-3 0,-5 1,1 1,2 2,3 0,-3 1,-3 1,-6 2,2 1,2 1,6 1,0 1,-1 2,-2 0,2 0,3 0,4 1,0 1,-1 1,-1 1,3 -1,10 -4,9z"/><path class="fil0" d="M98 60c-3,0 -5,-6 -4,-11 0,3 0,2 1,3 0,-2 0,-3 -1,-5 2,1 2,2 3,3 0,-3 1,-3 1,-6 1,2 1,2 1,6 1,0 1,-2 2,-3 0,3 0,4 -1,5 1,0 2,-2 2,-2 1,4 -1,11 -4,10z"/><path class="fil0" d="M184 68c-3,0 -5,-7 -5,-12 1,3 1,2 2,4 0,-2 0,-4 -1,-6 2,1 2,2 3,3 0,-3 1,-3 0,-6 2,2 2,2 2,6 1,0 1,-1 2,-2 0,2 0,3 -1,4 1,1 2,-1 2,-1 1,4 -2,10 -4,10z"/><path class="fil0" d="M153 24c-3,1 -7,-4 -8,-9 1,2 1,1 2,2 0,-2 -1,-3 -2,-5 1,0 2,1 3,2 -1,-2 0,-3 -1,-6 2,2 2,2 3,5 1,0 1,-1 1,-3 1,3 1,4 1,5 1,0 1,-2 1,-2 3,3 2,10 0,11z"/><path class="fil0" d="M78 64c-2,1 -7,-4 -8,-9 1,2 1,1 2,2 0,-2 -1,-3 -2,-5 1,0 2,1 3,2 -1,-3 0,-3 -1,-6 2,2 2,2 3,5 1,0 1,-1 1,-3 1,3 1,4 1,5 1,0 1,-2 1,-2 3,3 2,10 0,11z"/><path class="fil0" d="M21 88c0,2 -6,6 -11,6 3,-1 2,-1 4,-2 -2,0 -4,0 -6,1 1,-2 2,-2 3,-3 -3,0 -3,0 -6,0 2,-2 2,-1 5,-2 0,-1 -1,-1 -2,-2 2,0 3,0 5,0 0,-1 -2,-1 -2,-1 3,-2 10,0 10,3z"/><path class="fil0" d="M22 120c0,2 -6,6 -11,5 3,0 2,-1 3,-1 -2,0 -3,0 -5,1 0,-2 2,-2 2,-3 -2,0 -2,-1 -6,0 2,-2 3,-1 6,-2 0,-1 -1,-1 -2,-2 2,0 3,0 4,0 0,-1 -2,-1 -2,-1 4,-2 11,0 11,3z"/><path class="fil0" d="M21 111c-1,2 -8,2 -12,-1 2,0 2,0 3,0 -1,-1 -2,-2 -5,-2 2,-1 3,-1 4,-1 -2,-2 -2,-2 -5,-4 3,0 3,1 6,2 0,-1 -1,-2 -1,-3 2,1 3,2 4,3 0,-1 -1,-2 -1,-2 4,1 9,6 7,8z"/><path class="fil0" d="M18 140c0,2 -7,3 -12,1 3,0 2,0 4,0 -2,-1 -3,-1 -6,-1 2,-1 3,-1 4,-2 -2,-1 -2,-1 -6,-2 3,-1 3,-1 7,0 0,-1 -1,-1 -2,-2 2,0 3,1 4,1 1,0 -1,-2 -1,-2 4,0 10,5 8,7z"/><path class="fil0" d="M34 136c0,2 -7,3 -12,1 3,0 2,-1 4,-1 -2,0 -3,-1 -6,-1 1,-1 2,-1 4,-1 -3,-1 -3,-2 -6,-2 3,-2 3,-1 6,0 0,-1 -1,-2 -1,-3 2,1 3,1 4,2 0,-1 -1,-2 -1,-2 4,0 9,4 8,7z"/><path class="fil0" d="M38 145c0,2 -6,5 -11,5 2,-1 1,-1 3,-2 -2,0 -3,0 -6,1 1,-1 2,-2 3,-2 -2,-1 -2,-1 -6,-1 2,-2 3,-1 6,-2 0,-1 -1,-1 -2,-1 2,-1 3,-1 4,0 0,-1 -1,-2 -1,-2 3,-1 10,1 10,4z"/><path class="fil0" d="M21 153c0,2 -6,6 -11,5 3,-1 2,-1 3,-2 -2,0 -3,1 -5,1 0,-1 2,-1 3,-2 -3,0 -3,-1 -6,-1 2,-2 2,-1 5,-2 0,0 -1,-1 -2,-1 2,0 4,0 5,0 0,-1 -2,-2 -2,-2 4,-1 10,1 10,4z"/><path class="fil0" d="M15 165c1,2 -4,7 -9,8 3,-1 2,-1 3,-2 -2,0 -3,1 -5,2 0,-1 1,-2 2,-3 -3,1 -3,0 -6,1 2,-2 2,-2 5,-3 0,-1 -2,-1 -3,-1 2,-1 4,-1 5,-1 0,-1 -2,-1 -2,-1 3,-3 10,-3 10,0z"/><path class="fil0" d="M34 155c2,2 -3,8 -7,10 2,-2 1,-2 2,-3 -2,1 -3,1 -5,3 0,-2 1,-2 2,-4 -3,1 -3,1 -6,3 1,-3 2,-3 5,-5 -1,0 -2,0 -3,0 2,-1 3,-2 4,-2 0,-1 -2,-1 -2,-1 3,-2 10,-3 10,-1z"/><path class="fil0" d="M32 169c2,0 3,7 1,12 0,-3 0,-2 0,-4 -1,2 -1,4 -1,6 -1,-1 -1,-2 -2,-4 -1,3 -1,3 -2,6 -1,-3 -1,-3 0,-6 -1,0 -1,1 -2,2 0,-2 1,-4 1,-5 -1,0 -2,2 -2,2 0,-4 4,-10 7,-9z"/><path class="fil0" d="M40 156c3,-1 6,6 5,11 -1,-3 -1,-2 -2,-3 0,2 0,3 1,5 -2,-1 -2,-2 -3,-3 0,3 -1,3 0,6 -2,-2 -2,-2 -2,-6 -1,0 -1,1 -2,2 0,-2 0,-3 1,-4 -1,0 -2,1 -2,1 -1,-3 2,-10 4,-9z"/><path class="fil0" d="M49 153c2,-1 8,3 10,7 -2,-2 -1,-1 -3,-2 1,2 2,3 4,5 -2,0 -3,-1 -4,-1 1,2 1,2 3,5 -3,-1 -3,-1 -5,-4 -1,1 0,2 0,3 -1,-2 -2,-3 -2,-4 -1,0 -1,2 -1,2 -3,-3 -4,-10 -2,-11z"/><path class="fil0" d="M65 152c2,-1 6,5 6,10 -1,-2 -1,-1 -2,-3 0,2 1,4 2,6 -2,-1 -2,-2 -3,-3 0,3 -1,3 0,6 -2,-2 -1,-2 -2,-5 -1,0 -1,1 -2,2 0,-2 0,-3 0,-5 -1,0 -1,2 -1,2 -2,-3 -1,-10 2,-10z"/><path class="fil0" d="M48 170c3,0 7,5 7,11 -1,-3 -2,-2 -2,-4 0,3 0,4 1,6 -2,-1 -2,-2 -3,-3 0,3 0,3 1,7 -3,-2 -2,-3 -3,-6 -1,0 -1,1 -2,2 0,-2 0,-3 0,-4 -1,0 -1,2 -1,2 -2,-4 0,-11 2,-11z"/><path class="fil0" d="M59 171c2,-1 7,4 8,9 -2,-2 -2,-1 -3,-2 1,2 1,3 3,5 -2,-1 -3,-2 -4,-2 1,2 0,3 2,6 -3,-2 -2,-2 -4,-5 -1,0 0,1 -1,2 -1,-2 -1,-3 -1,-4 -1,0 -1,2 -1,2 -2,-3 -2,-10 1,-11z"/><path class="fil0" d="M68 170c2,-1 8,1 11,6 -2,-2 -2,-1 -3,-2 1,2 2,3 4,4 -2,0 -3,0 -4,-1 2,3 1,3 4,5 -3,0 -3,-1 -5,-3 -1,1 0,2 0,3 -2,-2 -3,-3 -3,-4 -1,1 0,3 0,3 -4,-3 -6,-9 -4,-11z"/><path class="fil0" d="M218 68c-2,-1 -1,-8 3,-12 -1,3 0,2 -1,4 2,-2 2,-3 3,-5 1,1 0,2 0,3 2,-2 3,-1 4,-4 1,3 0,3 -2,6 1,0 2,-1 3,-1 -1,2 -2,3 -3,3 1,1 2,0 2,0 -1,4 -7,8 -9,6z"/><path class="fil0" d="M125 26c-2,-2 0,-8 3,-12 -1,2 0,2 -1,3 2,-1 2,-2 3,-5 1,2 0,3 0,4 2,-2 3,-1 4,-4 1,3 0,2 -2,5 1,1 2,0 3,0 -1,2 -2,3 -3,3 1,1 2,0 2,0 -1,4 -7,8 -9,6z"/><path class="fil0" d="M158 28c-2,-1 -1,-8 2,-12 -1,3 0,2 0,4 1,-2 2,-3 2,-5 1,1 1,2 1,4 1,-2 2,-2 4,-5 0,3 -1,3 -2,6 1,0 1,-1 3,-1 -2,2 -3,3 -4,4 1,0 3,-1 3,-1 -1,4 -7,8 -9,6z"/><path class="fil0" d="M192 58c-2,-1 -1,-8 3,-12 -2,3 -1,2 -1,4 1,-1 2,-3 3,-5 0,2 0,3 0,4 2,-2 2,-2 4,-5 0,3 -1,3 -2,6 1,1 1,0 3,-1 -2,2 -2,3 -3,4 0,1 2,-1 2,-1 -1,4 -7,8 -9,6z"/><path class="fil0" d="M156 48c-2,-1 -1,-8 3,-11 -1,2 0,1 -1,3 1,-1 2,-2 3,-5 1,2 0,3 0,4 2,-2 3,-2 4,-5 0,3 0,3 -2,6 1,1 2,0 3,-1 -1,2 -2,3 -3,4 1,1 2,0 2,0 -1,3 -7,7 -9,5z"/><path class="fil0" d="M110 57c-2,-1 -1,-8 3,-12 -1,3 -1,2 -1,4 1,-2 2,-3 3,-5 0,1 0,2 0,3 2,-2 2,-1 4,-4 0,3 0,3 -2,6 1,0 2,-1 3,-1 -1,2 -2,3 -3,4 0,0 2,-1 2,-1 -1,4 -7,8 -9,6z"/><path class="fil0" d="M153 84c-2,-1 -1,-8 3,-12 -1,3 -1,2 -1,4 1,-2 2,-3 3,-5 0,1 0,2 0,3 2,-2 2,-1 4,-4 0,3 0,3 -2,6 1,0 2,-1 3,-1 -1,2 -2,3 -3,4 0,0 2,-1 2,-1 -1,4 -7,8 -9,6z"/><path class="fil0" d="M173 88c-2,-2 -1,-8 2,-12 -1,2 0,2 0,3 1,-1 2,-2 2,-5 1,2 0,3 1,4 1,-2 2,-1 4,-4 0,3 -1,2 -2,5 0,1 1,0 2,0 -1,2 -2,3 -3,3 1,1 3,0 3,0 -2,4 -7,8 -9,6z"/><path class="fil0" d="M210 109c-2,-1 -1,-8 3,-12 -1,3 0,2 -1,4 2,-2 2,-3 3,-5 1,1 0,2 0,4 2,-2 3,-2 4,-5 0,3 0,3 -2,6 1,0 2,-1 3,-1 -1,2 -2,3 -3,4 1,0 2,-1 2,-1 -1,4 -7,8 -9,6z"/><path class="fil0" d="M179 127c-2,-1 -1,-8 2,-12 -1,3 0,2 0,4 1,-2 2,-3 2,-5 1,1 1,2 1,3 1,-2 2,-1 4,-4 0,3 -1,3 -2,6 0,0 1,-1 2,-1 -1,2 -2,3 -3,4 1,0 3,-1 3,-1 -2,4 -7,8 -9,6z"/><path class="fil0" d="M210 134c-1,-3 5,-7 10,-8 -3,1 -2,1 -3,2 2,0 3,-1 5,-2 0,2 -1,2 -2,3 3,0 3,0 6,-1 -2,3 -2,2 -5,3 0,1 1,1 2,2 -2,0 -3,1 -4,1 0,0 2,1 2,1 -3,2 -10,1 -11,-1z"/><path class="fil0" d="M221 91c-1,-3 5,-7 10,-8 -3,1 -2,1 -3,2 2,0 3,-1 5,-2 0,2 -1,2 -2,3 3,0 3,1 6,-1 -2,3 -2,2 -5,3 0,1 1,1 3,2 -3,0 -4,1 -5,1 0,0 2,1 2,1 -3,2 -10,1 -11,-1z"/><path class="fil0" d="M202 92c-1,-2 5,-7 10,-8 -3,2 -2,2 -3,3 2,-1 3,-1 5,-3 0,2 -1,3 -2,4 3,-1 3,0 6,-2 -2,3 -2,2 -5,4 0,1 1,0 2,1 -2,1 -3,1 -4,1 0,1 2,1 2,1 -3,2 -11,2 -11,-1z"/><path class="fil0" d="M219 77c-1,-2 5,-7 10,-7 -3,1 -2,1 -3,2 2,0 3,-1 5,-2 0,1 -1,2 -2,3 3,-1 3,0 6,-1 -2,2 -2,2 -5,3 0,1 1,1 3,1 -3,1 -4,1 -5,1 0,1 2,1 2,1 -3,2 -10,2 -11,-1z"/><path class="fil0" d="M227 123c-1,-2 4,-7 9,-7 -2,1 -1,1 -3,2 2,0 4,-1 6,-2 -1,1 -2,2 -3,3 3,-1 3,0 7,-1 -2,2 -3,2 -6,3 1,1 2,1 3,1 -2,1 -4,1 -5,1 0,1 3,1 3,1 -4,2 -11,2 -11,-1z"/><path class="fil0" d="M185 140c-2,-1 -1,-8 3,-12 -2,3 -1,2 -1,4 1,-2 2,-3 3,-5 0,1 0,2 0,4 2,-2 2,-2 4,-5 0,3 -1,3 -2,6 1,0 1,-1 3,-1 -2,2 -2,3 -3,4 0,0 2,-1 2,-1 -1,4 -7,8 -9,6z"/><path class="fil0" d="M100 90c-2,-1 -1,-8 2,-12 -1,3 0,2 0,4 1,-2 2,-3 2,-5 1,1 1,2 1,3 1,-2 2,-1 4,-4 0,3 -1,3 -2,6 1,0 1,-1 3,-1 -2,2 -3,3 -4,3 1,1 3,0 3,0 -1,4 -7,8 -9,6z"/><path class="fil0" d="M143 126c0,-3 6,-6 11,-6 -3,1 -2,1 -4,2 3,0 4,0 6,-1 -1,1 -2,1 -3,2 3,0 3,1 6,0 -2,2 -2,2 -5,3 0,1 1,1 2,1 -2,1 -3,1 -5,0 0,1 2,2 2,2 -3,1 -10,0 -10,-3z"/><path class="fil0" d="M156 110c2,-2 8,1 11,6 -2,-2 -2,-1 -3,-2 1,2 2,3 4,4 -2,0 -3,0 -4,-1 1,3 1,3 3,5 -3,0 -2,-1 -5,-3 -1,1 0,2 0,3 -1,-2 -2,-3 -2,-4 -1,0 -1,2 -1,2 -3,-2 -5,-9 -3,-10z"/><path class="fil0" d="M169 108c-1,-2 5,-6 10,-6 -3,1 -1,1 -3,2 2,0 3,0 6,-1 -1,1 -2,2 -3,2 3,0 3,1 6,0 -2,3 -2,2 -6,3 0,1 2,1 3,1 -3,1 -4,1 -5,0 0,1 2,2 2,2 -4,1 -11,0 -10,-3z"/><path class="fil0" d="M169 97c-1,-2 4,-7 10,-8 -3,1 -2,1 -3,3 2,-1 3,-1 5,-3 0,2 -2,2 -2,3 2,0 3,1 6,-1 -2,3 -2,2 -5,4 0,1 1,0 2,1 -2,1 -3,1 -4,1 0,1 2,1 2,1 -4,2 -11,2 -11,-1z"/><path class="fil0" d="M199 126c-2,1 -7,-4 -7,-10 1,3 1,2 2,3 -1,-2 -1,-3 -2,-5 1,0 2,2 3,2 -1,-2 0,-3 -1,-6 2,2 2,2 3,6 1,-1 1,-2 1,-3 1,2 1,3 1,4 1,0 1,-2 1,-2 2,4 2,11 -1,11z"/><path class="fil0" d="M203 113c-3,0 -6,-6 -6,-11 1,3 1,2 2,3 0,-2 0,-3 -1,-6 1,1 2,2 2,3 1,-2 1,-2 1,-6 2,2 1,3 2,6 1,0 1,-1 2,-2 0,2 0,3 -1,4 1,0 2,-1 2,-1 1,3 -1,10 -3,10z"/><path class="fil0" d="M189 69c-1,-2 5,-7 10,-7 -3,1 -2,1 -3,2 2,0 3,-1 5,-2 0,2 -1,2 -2,3 3,0 3,0 6,-1 -2,2 -2,2 -5,3 0,1 1,1 2,1 -2,1 -3,1 -4,1 0,1 2,1 2,1 -3,3 -10,2 -11,-1z"/><path class="fil0" d="M187 87c-2,-1 -1,-8 2,-12 -1,2 0,2 0,4 1,-2 1,-3 2,-6 1,2 0,3 0,4 2,-2 3,-1 5,-4 0,3 -1,2 -2,6 0,0 1,-1 2,-1 -1,2 -2,3 -3,3 1,1 3,0 3,0 -2,4 -7,8 -9,6z"/><path class="fil0" d="M168 75c-2,-2 -1,-9 3,-12 -1,2 -1,2 -1,3 1,-1 2,-2 3,-5 0,2 0,3 0,4 2,-2 2,-1 4,-4 0,3 0,2 -2,5 1,1 1,0 3,0 -1,1 -2,3 -3,3 0,1 2,0 2,0 -1,3 -7,8 -9,6z"/><path class="fil0" d="M177 53c-2,0 -6,-6 -5,-11 1,3 1,2 2,3 0,-2 -1,-3 -2,-5 2,1 2,2 3,3 0,-3 1,-3 0,-7 2,3 2,3 2,6 1,0 1,-1 2,-2 0,2 0,4 0,5 1,0 2,-2 2,-2 1,4 -1,10 -4,10z"/><path class="fil0" d="M147 42c-3,-1 -1,-8 2,-11 -1,2 0,2 -1,3 2,-1 2,-2 3,-5 1,2 0,3 0,4 2,-2 3,-2 4,-5 1,3 0,3 -2,6 1,1 2,0 3,-1 -1,2 -2,3 -3,4 1,1 3,0 3,0 -2,3 -7,7 -9,5z"/><path class="fil0" d="M134 42c-3,1 -6,-5 -6,-10 1,2 1,1 2,3 0,-2 0,-3 -1,-6 2,1 2,2 3,3 0,-3 0,-3 0,-6 2,2 1,2 2,6 1,0 1,-1 2,-3 0,3 0,4 0,5 0,0 1,-2 1,-2 1,4 -1,11 -3,10z"/><path class="fil0" d="M122 13c-2,2 -8,-2 -10,-6 2,2 2,1 3,2 -1,-2 -1,-3 -3,-5 1,0 2,1 3,1 -1,-2 0,-2 -3,-5 3,1 3,1 5,4 1,-1 0,-2 0,-3 2,2 2,3 3,4 1,0 0,-2 0,-2 3,2 5,9 2,10z"/><path class="fil0" d="M110 100c-2,-2 2,-8 6,-10 -2,2 -1,1 -2,3 2,-1 3,-2 5,-4 0,2 -1,3 -2,4 3,-1 3,-1 6,-3 -1,3 -2,2 -4,5 1,0 1,0 3,0 -2,1 -3,2 -4,2 0,1 2,1 2,1 -2,3 -9,4 -10,2z"/><path class="fil0" d="M147 78c-2,1 -7,-4 -7,-9 1,2 1,1 2,2 0,-2 -1,-3 -2,-5 2,1 2,2 3,2 0,-2 0,-3 -1,-6 3,2 2,2 3,6 1,-1 1,-2 1,-3 1,2 1,3 1,5 1,-1 1,-3 1,-3 2,4 2,11 -1,11z"/><path class="fil0" d="M144 102c-2,1 -7,-5 -7,-10 1,3 1,2 2,3 0,-2 -1,-3 -2,-5 2,0 2,1 3,2 0,-2 0,-3 -1,-6 3,2 2,2 3,5 1,0 1,-1 2,-2 0,2 1,3 0,4 1,0 2,-2 2,-2 2,4 1,11 -2,11z"/><path class="fil0" d="M142 84c-1,2 -8,1 -12,-3 3,1 2,0 4,1 -2,-2 -3,-2 -5,-3 1,-1 3,0 4,0 -2,-2 -2,-3 -5,-4 3,0 3,0 6,2 0,-1 0,-2 -1,-3 2,1 3,2 4,3 0,-1 -1,-2 -1,-2 4,1 8,7 6,9z"/><path class="fil0" d="M108 70c-2,-2 2,-8 6,-10 -1,2 0,2 -1,3 1,-1 2,-2 4,-4 0,2 -1,3 -1,4 2,-1 3,-1 5,-3 -1,3 -1,3 -4,5 1,1 2,0 3,0 -2,2 -3,2 -4,2 0,1 2,1 2,1 -2,3 -9,5 -10,2z"/><path class="fil0" d="M136 57c-2,2 -8,-2 -10,-7 2,2 2,1 3,2 -1,-1 -2,-2 -4,-4 2,0 3,1 4,1 -1,-2 -1,-3 -3,-5 3,1 3,1 5,4 1,-1 0,-2 0,-3 2,2 2,3 2,4 1,0 1,-2 1,-2 3,2 5,9 2,10z"/><path class="fil0" d="M55 85c-2,2 -9,1 -12,-3 2,1 2,0 3,1 -1,-2 -2,-2 -5,-3 2,-1 3,0 4,0 -2,-2 -1,-3 -4,-4 3,-1 3,0 6,2 0,-1 -1,-2 -1,-3 2,1 3,2 4,3 0,0 -1,-2 -1,-2 4,1 8,7 6,9z"/><path class="fil0" d="M88 83c-1,2 -8,-2 -10,-6 2,2 2,0 3,2 -1,-2 -1,-3 -3,-5 1,0 2,1 3,1 -1,-2 0,-3 -3,-5 3,1 3,1 5,4 1,-1 0,-2 0,-3 2,2 2,3 3,4 1,0 0,-2 0,-2 3,2 5,9 2,10z"/><path class="fil0" d="M90 47c-2,0 -5,-6 -3,-11 0,3 0,1 1,3 0,-2 0,-3 0,-6 1,1 1,3 2,4 0,-3 1,-3 1,-6 2,2 1,2 1,6 1,0 1,-1 2,-2 0,2 0,3 -1,4 1,0 2,-1 2,-1 1,4 -2,10 -5,9z"/><path class="fil0" d="M100 37c-2,0 -5,-7 -4,-12 1,3 1,2 1,3 1,-2 1,-3 0,-5 2,1 2,2 2,3 1,-3 2,-3 2,-6 1,2 1,3 1,6 1,0 1,-1 2,-2 0,2 -1,3 -1,5 1,0 2,-2 2,-2 1,4 -2,10 -5,10z"/><path class="fil0" d="M105 47c-2,-1 -2,-8 1,-13 -1,3 0,2 0,4 1,-2 1,-3 2,-5 1,1 0,2 1,4 1,-3 2,-2 3,-6 1,3 0,3 -1,7 1,0 1,-1 2,-2 -1,2 -1,4 -2,4 1,1 2,0 2,0 -1,4 -6,8 -8,7z"/></g></svg>